<?xml version="1.0" standalone="no"?><!DOCTYPE svg PUBLIC "-//W3C//DTD SVG 1.1//EN" "http://www.w3.org/Graphics/SVG/1.1/DTD/svg11.dtd"><svg t="1699955893218" class="icon" viewBox="0 0 1024 1024" version="1.1" xmlns="http://www.w3.org/2000/svg" p-id="4120" id="mx_n_1699955893219" width="24" height="24" xmlns:xlink="http://www.w3.org/1999/xlink"><path d="M798.293333 282.88c16.64 16.64 16.64 43.52 0 60.16l-78.08 78.08-160-160 78.08-78.08a42.496 42.496 0 0 1 60.16 0l99.84 99.84z m-283.733333 23.893333l-374.186667 374.186667c-7.68 7.68-12.373333 18.773333-12.373333 29.866667V810.666667c0 23.466667 19.2 42.666667 42.666667 42.666666h99.84c11.52 0 22.186667-4.693333 30.293333-12.373333l374.186667-374.186667-160.426667-160zM640 682.666667l-170.666667 170.666666h341.333334c46.933333 0 85.333333-38.4 85.333333-85.333333s-38.4-85.333333-85.333333-85.333333h-170.666667z" p-id="4121"></path></svg>