<?xml version="1.0" standalone="no"?><!DOCTYPE svg PUBLIC "-//W3C//DTD SVG 1.1//EN" "http://www.w3.org/Graphics/SVG/1.1/DTD/svg11.dtd"><svg t="1701589492407" class="icon" viewBox="0 0 1024 1024" version="1.1" xmlns="http://www.w3.org/2000/svg" p-id="1584" xmlns:xlink="http://www.w3.org/1999/xlink" width="32" height="32"><path d="M819.2 808.96v-128c0-30.72 20.48-51.2 51.2-51.2s51.2 20.48 51.2 51.2v153.6c0 40.96-30.72 76.8-71.68 76.8H174.08c-40.96 0-71.68-35.84-71.68-76.8v-153.6c0-30.72 20.48-51.2 51.2-51.2s51.2 20.48 51.2 51.2v128h614.4zM460.8 281.6L399.36 343.04c-20.48 20.48-51.2 20.48-71.68 0-20.48-15.36-20.48-51.2 0-71.68l143.36-143.36c15.36-15.36 35.84-20.48 51.2-15.36 10.24 0 20.48 5.12 25.6 15.36l143.36 143.36c20.48 20.48 20.48 51.2 0 71.68-20.48 20.48-51.2 20.48-71.68 0l-56.32-51.2v332.8c0 30.72-20.48 51.2-51.2 51.2s-51.2-20.48-51.2-51.2V281.6z" fill="#000000" p-id="1585"></path></svg>