<?xml version="1.0" standalone="no"?><!DOCTYPE svg PUBLIC "-//W3C//DTD SVG 1.1//EN" "http://www.w3.org/Graphics/SVG/1.1/DTD/svg11.dtd"><svg t="1700054583067" class="icon" viewBox="0 0 1024 1024" version="1.1" xmlns="http://www.w3.org/2000/svg" p-id="4005" xmlns:xlink="http://www.w3.org/1999/xlink" width="24" height="24"><path d="M504.224 470.288l207.84-207.84a16 16 0 0 1 22.608 0l11.328 11.328a16 16 0 0 1 0 22.624l-207.84 207.824 207.84 207.84a16 16 0 0 1 0 22.608l-11.328 11.328a16 16 0 0 1-22.624 0l-207.824-207.84-207.84 207.84a16 16 0 0 1-22.608 0l-11.328-11.328a16 16 0 0 1 0-22.624l207.84-207.824-207.84-207.84a16 16 0 0 1 0-22.608l11.328-11.328a16 16 0 0 1 22.624 0l207.824 207.84z" fill="#ffffff" p-id="4006"></path></svg>